<svg width="33" height="32" viewBox="0 0 33 32" fill="none" xmlns="http://www.w3.org/2000/svg">
<path d="M16.6023 3.99741C16.6137 3.99743 16.626 3.99746 16.6391 3.99749L16.7807 3.99793C18.4243 4.00397 26.7545 4.06435 29.0005 4.66817C30.3774 5.03746 31.4615 6.12577 31.8295 7.50724C32.0321 8.26623 32.1733 9.27503 32.2717 10.3125L32.2908 10.5204C32.3063 10.6937 32.3206 10.8675 32.3339 11.0407L32.3492 11.2481C32.4807 13.0763 32.496 14.7871 32.4978 15.1614L32.498 15.2119C32.498 15.216 32.498 15.2228 32.498 15.2228V15.2511C32.498 15.2511 32.498 15.2579 32.498 15.262L32.4978 15.3125C32.496 15.701 32.4795 17.5288 32.3339 19.4334L32.3175 19.6414L32.3 19.8496C32.2009 20.9948 32.0524 22.1319 31.8295 22.9667C31.4615 24.3482 30.3774 25.4367 29.0005 25.8057C26.6797 26.4299 17.8622 26.4736 16.6391 26.4767L16.5449 26.4769C16.5372 26.4769 16.5304 26.4769 16.5246 26.4769L16.4861 26.4769C16.4861 26.4769 16.4773 26.4769 16.4715 26.4769L16.3569 26.4767C15.7388 26.4751 13.1811 26.4632 10.5026 26.3712L10.1601 26.3591C10.103 26.3569 10.0458 26.3548 9.98868 26.3526L9.64583 26.3391L9.30376 26.3246C7.08475 26.2272 4.96905 26.0675 3.99578 25.8057C2.61894 25.4367 1.53474 24.3482 1.16676 22.9667C0.943826 22.1319 0.795204 20.9948 0.696123 19.8496L0.678649 19.6414L0.662233 19.4334C0.521807 17.598 0.501422 15.834 0.498463 15.3605L0.49811 15.2928C0.498085 15.2867 0.498064 15.281 0.498047 15.2759V15.198C0.498064 15.1929 0.498085 15.1873 0.49811 15.1812L0.498463 15.1134C0.501143 14.6846 0.518116 13.1973 0.625609 11.5572L0.639522 11.3514C0.641922 11.317 0.644362 11.2826 0.646843 11.2481L0.662233 11.0407C0.675481 10.8675 0.689797 10.6937 0.705268 10.5204L0.724392 10.3125C0.822841 9.27503 0.964093 8.26623 1.16676 7.50724C1.53474 6.12577 2.61894 5.03746 3.99578 4.66817C4.96905 4.40652 7.08475 4.24691 9.30376 4.14954L9.64583 4.13505L9.98868 4.12151C10.0458 4.11933 10.103 4.11719 10.1601 4.11508L10.5026 4.10291C13.0102 4.01682 15.4118 4.00088 16.2153 3.99793L16.3569 3.99749C16.3701 3.99746 16.3823 3.99743 16.3937 3.99741H16.6023ZM13.2981 10.4198V20.0541L21.6116 15.2372L13.2981 10.4198Z" fill="white"/>
</svg>
